<svg xmlns="http://www.w3.org/2000/svg" version="1.1" xmlns:xlink="http://www.w3.org/1999/xlink" xmlns:svgjs="http://svgjs.com/svgjs" width="1440" height="560" preserveAspectRatio="none" viewBox="0 0 1440 560"><g mask="url(&quot;#SvgjsMask1049&quot;)" fill="none"><rect width="1440" height="560" x="0" y="0" fill="url(#SvgjsLinearGradient1050)"></rect><path d="M 0,145 C 72,129.2 216,44.4 360,66 C 504,87.6 576,248.2 720,253 C 864,257.8 936,108.4 1080,90 C 1224,71.6 1368,146.8 1440,161L1440 560L0 560z" fill="#184a7e"></path><path d="M 0,523 C 72,481 216,325.8 360,313 C 504,300.2 576,446.6 720,459 C 864,471.4 936,366.6 1080,375 C 1224,383.4 1368,475.8 1440,501L1440 560L0 560z" fill="#2264ab"></path></g><defs><mask id="SvgjsMask1049"><rect width="1440" height="560" fill="#ffffff"></rect></mask><linearGradient x1="15.28%" y1="-39.29%" x2="84.72%" y2="139.29%" gradientUnits="userSpaceOnUse" id="SvgjsLinearGradient1050"><stop stop-color="#0e2a47" offset="0"></stop><stop stop-color="#00459e" offset="1"></stop></linearGradient></defs></svg>